ISO-10303-21;
HEADER;
/* Generated by software containing ST-Developer
 * from STEP Tools, Inc. (www.steptools.com) 
 */

FILE_DESCRIPTION(
/* description */ (''),
/* implementation_level */ '2;1');

FILE_NAME(
/* name */ 'Hackpad Bottom.step',
/* time_stamp */ '2026-08-30T23:23:10-04:00',
/* author */ (''),
/* organization */ (''),
/* preprocessor_version */ 'ST-DEVELOPER v20.1',
/* originating_system */ 'Autodesk Translation Framework v15.8.0.0',
/* authorisation */ '');

FILE_SCHEMA (('AUTOMOTIVE_DESIGN { 1 0 10303 214 3 1 1 }'));
ENDSEC;

DATA;
#10=MECHANICAL_DESIGN_GEOMETRIC_PRESENTATION_REPRESENTATION('',(#13),#451);
#11=SHAPE_REPRESENTATION_RELATIONSHIP('SRR','None',#458,#12);
#12=ADVANCED_BREP_SHAPE_REPRESENTATION('',(#14),#450);
#13=STYLED_ITEM('',(#467),#14);
#14=MANIFOLD_SOLID_BREP('Body1',#279);
#15=FACE_BOUND('',#42,.T.);
#16=FACE_BOUND('',#45,.T.);
#17=FACE_OUTER_BOUND('',#31,.T.);
#18=FACE_OUTER_BOUND('',#32,.T.);
#19=FACE_OUTER_BOUND('',#33,.T.);
#20=FACE_OUTER_BOUND('',#34,.T.);
#21=FACE_OUTER_BOUND('',#35,.T.);
#22=FACE_OUTER_BOUND('',#36,.T.);
#23=FACE_OUTER_BOUND('',#37,.T.);
#24=FACE_OUTER_BOUND('',#38,.T.);
#25=FACE_OUTER_BOUND('',#39,.T.);
#26=FACE_OUTER_BOUND('',#40,.T.);
#27=FACE_OUTER_BOUND('',#41,.T.);
#28=FACE_OUTER_BOUND('',#43,.T.);
#29=FACE_OUTER_BOUND('',#44,.T.);
#30=FACE_OUTER_BOUND('',#46,.T.);
#31=EDGE_LOOP('',(#179,#180,#181,#182));
#32=EDGE_LOOP('',(#183,#184,#185,#186));
#33=EDGE_LOOP('',(#187,#188,#189,#190));
#34=EDGE_LOOP('',(#191,#192,#193,#194,#195,#196,#197,#198));
#35=EDGE_LOOP('',(#199,#200,#201,#202));
#36=EDGE_LOOP('',(#203,#204,#205,#206));
#37=EDGE_LOOP('',(#207,#208,#209,#210));
#38=EDGE_LOOP('',(#211,#212,#213,#214,#215,#216,#217,#218));
#39=EDGE_LOOP('',(#219,#220,#221,#222));
#40=EDGE_LOOP('',(#223,#224,#225,#226));
#41=EDGE_LOOP('',(#227,#228,#229,#230));
#42=EDGE_LOOP('',(#231,#232,#233,#234));
#43=EDGE_LOOP('',(#235,#236,#237,#238));
#44=EDGE_LOOP('',(#239,#240,#241,#242));
#45=EDGE_LOOP('',(#243,#244,#245,#246));
#46=EDGE_LOOP('',(#247,#248,#249,#250));
#47=LINE('',#377,#83);
#48=LINE('',#379,#84);
#49=LINE('',#381,#85);
#50=LINE('',#382,#86);
#51=LINE('',#385,#87);
#52=LINE('',#387,#88);
#53=LINE('',#388,#89);
#54=LINE('',#391,#90);
#55=LINE('',#393,#91);
#56=LINE('',#394,#92);
#57=LINE('',#397,#93);
#58=LINE('',#399,#94);
#59=LINE('',#401,#95);
#60=LINE('',#403,#96);
#61=LINE('',#404,#97);
#62=LINE('',#407,#98);
#63=LINE('',#409,#99);
#64=LINE('',#410,#100);
#65=LINE('',#413,#101);
#66=LINE('',#415,#102);
#67=LINE('',#416,#103);
#68=LINE('',#418,#104);
#69=LINE('',#419,#105);
#70=LINE('',#421,#106);
#71=LINE('',#425,#107);
#72=LINE('',#427,#108);
#73=LINE('',#429,#109);
#74=LINE('',#430,#110);
#75=LINE('',#433,#111);
#76=LINE('',#435,#112);
#77=LINE('',#436,#113);
#78=LINE('',#439,#114);
#79=LINE('',#441,#115);
#80=LINE('',#442,#116);
#81=LINE('',#444,#117);
#82=LINE('',#445,#118);
#83=VECTOR('',#311,10.);
#84=VECTOR('',#312,10.);
#85=VECTOR('',#313,10.);
#86=VECTOR('',#314,10.);
#87=VECTOR('',#317,10.);
#88=VECTOR('',#318,10.);
#89=VECTOR('',#319,10.);
#90=VECTOR('',#322,10.);
#91=VECTOR('',#323,10.);
#92=VECTOR('',#324,10.);
#93=VECTOR('',#327,10.);
#94=VECTOR('',#328,10.);
#95=VECTOR('',#329,10.);
#96=VECTOR('',#330,10.);
#97=VECTOR('',#331,10.);
#98=VECTOR('',#334,10.);
#99=VECTOR('',#335,10.);
#100=VECTOR('',#336,10.);
#101=VECTOR('',#339,10.);
#102=VECTOR('',#340,10.);
#103=VECTOR('',#341,10.);
#104=VECTOR('',#344,10.);
#105=VECTOR('',#345,10.);
#106=VECTOR('',#348,10.);
#107=VECTOR('',#351,10.);
#108=VECTOR('',#352,10.);
#109=VECTOR('',#353,10.);
#110=VECTOR('',#354,10.);
#111=VECTOR('',#357,10.);
#112=VECTOR('',#358,10.);
#113=VECTOR('',#359,10.);
#114=VECTOR('',#362,10.);
#115=VECTOR('',#363,10.);
#116=VECTOR('',#364,10.);
#117=VECTOR('',#367,10.);
#118=VECTOR('',#368,10.);
#119=VERTEX_POINT('',#375);
#120=VERTEX_POINT('',#376);
#121=VERTEX_POINT('',#378);
#122=VERTEX_POINT('',#380);
#123=VERTEX_POINT('',#384);
#124=VERTEX_POINT('',#386);
#125=VERTEX_POINT('',#390);
#126=VERTEX_POINT('',#392);
#127=VERTEX_POINT('',#396);
#128=VERTEX_POINT('',#398);
#129=VERTEX_POINT('',#400);
#130=VERTEX_POINT('',#402);
#131=VERTEX_POINT('',#406);
#132=VERTEX_POINT('',#408);
#133=VERTEX_POINT('',#412);
#134=VERTEX_POINT('',#414);
#135=VERTEX_POINT('',#423);
#136=VERTEX_POINT('',#424);
#137=VERTEX_POINT('',#426);
#138=VERTEX_POINT('',#428);
#139=VERTEX_POINT('',#432);
#140=VERTEX_POINT('',#434);
#141=VERTEX_POINT('',#438);
#142=VERTEX_POINT('',#440);
#143=EDGE_CURVE('',#119,#120,#47,.T.);
#144=EDGE_CURVE('',#119,#121,#48,.T.);
#145=EDGE_CURVE('',#122,#121,#49,.T.);
#146=EDGE_CURVE('',#120,#122,#50,.T.);
#147=EDGE_CURVE('',#123,#119,#51,.T.);
#148=EDGE_CURVE('',#123,#124,#52,.T.);
#149=EDGE_CURVE('',#121,#124,#53,.T.);
#150=EDGE_CURVE('',#125,#123,#54,.T.);
#151=EDGE_CURVE('',#125,#126,#55,.T.);
#152=EDGE_CURVE('',#124,#126,#56,.T.);
#153=EDGE_CURVE('',#126,#127,#57,.T.);
#154=EDGE_CURVE('',#128,#127,#58,.T.);
#155=EDGE_CURVE('',#129,#128,#59,.T.);
#156=EDGE_CURVE('',#129,#130,#60,.T.);
#157=EDGE_CURVE('',#130,#122,#61,.T.);
#158=EDGE_CURVE('',#131,#129,#62,.T.);
#159=EDGE_CURVE('',#131,#132,#63,.T.);
#160=EDGE_CURVE('',#132,#130,#64,.T.);
#161=EDGE_CURVE('',#133,#131,#65,.T.);
#162=EDGE_CURVE('',#133,#134,#66,.T.);
#163=EDGE_CURVE('',#134,#132,#67,.T.);
#164=EDGE_CURVE('',#128,#133,#68,.T.);
#165=EDGE_CURVE('',#127,#134,#69,.T.);
#166=EDGE_CURVE('',#120,#125,#70,.T.);
#167=EDGE_CURVE('',#135,#136,#71,.T.);
#168=EDGE_CURVE('',#135,#137,#72,.T.);
#169=EDGE_CURVE('',#138,#137,#73,.T.);
#170=EDGE_CURVE('',#136,#138,#74,.T.);
#171=EDGE_CURVE('',#136,#139,#75,.T.);
#172=EDGE_CURVE('',#140,#138,#76,.T.);
#173=EDGE_CURVE('',#139,#140,#77,.T.);
#174=EDGE_CURVE('',#139,#141,#78,.T.);
#175=EDGE_CURVE('',#142,#140,#79,.T.);
#176=EDGE_CURVE('',#141,#142,#80,.T.);
#177=EDGE_CURVE('',#141,#135,#81,.T.);
#178=EDGE_CURVE('',#137,#142,#82,.T.);
#179=ORIENTED_EDGE('',*,*,#143,.F.);
#180=ORIENTED_EDGE('',*,*,#144,.T.);
#181=ORIENTED_EDGE('',*,*,#145,.F.);
#182=ORIENTED_EDGE('',*,*,#146,.F.);
#183=ORIENTED_EDGE('',*,*,#147,.F.);
#184=ORIENTED_EDGE('',*,*,#148,.T.);
#185=ORIENTED_EDGE('',*,*,#149,.F.);
#186=ORIENTED_EDGE('',*,*,#144,.F.);
#187=ORIENTED_EDGE('',*,*,#150,.F.);
#188=ORIENTED_EDGE('',*,*,#151,.T.);
#189=ORIENTED_EDGE('',*,*,#152,.F.);
#190=ORIENTED_EDGE('',*,*,#148,.F.);
#191=ORIENTED_EDGE('',*,*,#152,.T.);
#192=ORIENTED_EDGE('',*,*,#153,.T.);
#193=ORIENTED_EDGE('',*,*,#154,.F.);
#194=ORIENTED_EDGE('',*,*,#155,.F.);
#195=ORIENTED_EDGE('',*,*,#156,.T.);
#196=ORIENTED_EDGE('',*,*,#157,.T.);
#197=ORIENTED_EDGE('',*,*,#145,.T.);
#198=ORIENTED_EDGE('',*,*,#149,.T.);
#199=ORIENTED_EDGE('',*,*,#158,.F.);
#200=ORIENTED_EDGE('',*,*,#159,.T.);
#201=ORIENTED_EDGE('',*,*,#160,.T.);
#202=ORIENTED_EDGE('',*,*,#156,.F.);
#203=ORIENTED_EDGE('',*,*,#161,.F.);
#204=ORIENTED_EDGE('',*,*,#162,.T.);
#205=ORIENTED_EDGE('',*,*,#163,.T.);
#206=ORIENTED_EDGE('',*,*,#159,.F.);
#207=ORIENTED_EDGE('',*,*,#164,.F.);
#208=ORIENTED_EDGE('',*,*,#154,.T.);
#209=ORIENTED_EDGE('',*,*,#165,.T.);
#210=ORIENTED_EDGE('',*,*,#162,.F.);
#211=ORIENTED_EDGE('',*,*,#165,.F.);
#212=ORIENTED_EDGE('',*,*,#153,.F.);
#213=ORIENTED_EDGE('',*,*,#151,.F.);
#214=ORIENTED_EDGE('',*,*,#166,.F.);
#215=ORIENTED_EDGE('',*,*,#146,.T.);
#216=ORIENTED_EDGE('',*,*,#157,.F.);
#217=ORIENTED_EDGE('',*,*,#160,.F.);
#218=ORIENTED_EDGE('',*,*,#163,.F.);
#219=ORIENTED_EDGE('',*,*,#167,.F.);
#220=ORIENTED_EDGE('',*,*,#168,.T.);
#221=ORIENTED_EDGE('',*,*,#169,.F.);
#222=ORIENTED_EDGE('',*,*,#170,.F.);
#223=ORIENTED_EDGE('',*,*,#171,.F.);
#224=ORIENTED_EDGE('',*,*,#170,.T.);
#225=ORIENTED_EDGE('',*,*,#172,.F.);
#226=ORIENTED_EDGE('',*,*,#173,.F.);
#227=ORIENTED_EDGE('',*,*,#174,.F.);
#228=ORIENTED_EDGE('',*,*,#173,.T.);
#229=ORIENTED_EDGE('',*,*,#175,.F.);
#230=ORIENTED_EDGE('',*,*,#176,.F.);
#231=ORIENTED_EDGE('',*,*,#143,.T.);
#232=ORIENTED_EDGE('',*,*,#166,.T.);
#233=ORIENTED_EDGE('',*,*,#150,.T.);
#234=ORIENTED_EDGE('',*,*,#147,.T.);
#235=ORIENTED_EDGE('',*,*,#177,.F.);
#236=ORIENTED_EDGE('',*,*,#176,.T.);
#237=ORIENTED_EDGE('',*,*,#178,.F.);
#238=ORIENTED_EDGE('',*,*,#168,.F.);
#239=ORIENTED_EDGE('',*,*,#178,.T.);
#240=ORIENTED_EDGE('',*,*,#175,.T.);
#241=ORIENTED_EDGE('',*,*,#172,.T.);
#242=ORIENTED_EDGE('',*,*,#169,.T.);
#243=ORIENTED_EDGE('',*,*,#155,.T.);
#244=ORIENTED_EDGE('',*,*,#164,.T.);
#245=ORIENTED_EDGE('',*,*,#161,.T.);
#246=ORIENTED_EDGE('',*,*,#158,.T.);
#247=ORIENTED_EDGE('',*,*,#177,.T.);
#248=ORIENTED_EDGE('',*,*,#167,.T.);
#249=ORIENTED_EDGE('',*,*,#171,.T.);
#250=ORIENTED_EDGE('',*,*,#174,.T.);
#251=PLANE('',#293);
#252=PLANE('',#294);
#253=PLANE('',#295);
#254=PLANE('',#296);
#255=PLANE('',#297);
#256=PLANE('',#298);
#257=PLANE('',#299);
#258=PLANE('',#300);
#259=PLANE('',#301);
#260=PLANE('',#302);
#261=PLANE('',#303);
#262=PLANE('',#304);
#263=PLANE('',#305);
#264=PLANE('',#306);
#265=ADVANCED_FACE('',(#17),#251,.F.);
#266=ADVANCED_FACE('',(#18),#252,.F.);
#267=ADVANCED_FACE('',(#19),#253,.F.);
#268=ADVANCED_FACE('',(#20),#254,.F.);
#269=ADVANCED_FACE('',(#21),#255,.F.);
#270=ADVANCED_FACE('',(#22),#256,.F.);
#271=ADVANCED_FACE('',(#23),#257,.F.);
#272=ADVANCED_FACE('',(#24),#258,.F.);
#273=ADVANCED_FACE('',(#25),#259,.T.);
#274=ADVANCED_FACE('',(#26),#260,.T.);
#275=ADVANCED_FACE('',(#27,#15),#261,.T.);
#276=ADVANCED_FACE('',(#28),#262,.T.);
#277=ADVANCED_FACE('',(#29,#16),#263,.T.);
#278=ADVANCED_FACE('',(#30),#264,.F.);
#279=CLOSED_SHELL('',(#265,#266,#267,#268,#269,#270,#271,#272,#273,#274,
#275,#276,#277,#278));
#280=DERIVED_UNIT_ELEMENT(#282,1.);
#281=DERIVED_UNIT_ELEMENT(#453,-3.);
#282=(
MASS_UNIT()
NAMED_UNIT(*)
SI_UNIT(.KILO.,.GRAM.)
);
#283=DERIVED_UNIT((#280,#281));
#284=MEASURE_REPRESENTATION_ITEM('density measure',
POSITIVE_RATIO_MEASURE(7850.),#283);
#285=PROPERTY_DEFINITION_REPRESENTATION(#290,#287);
#286=PROPERTY_DEFINITION_REPRESENTATION(#291,#288);
#287=REPRESENTATION('material name',(#289),#450);
#288=REPRESENTATION('density',(#284),#450);
#289=DESCRIPTIVE_REPRESENTATION_ITEM('Steel','Steel');
#290=PROPERTY_DEFINITION('material property','material name',#460);
#291=PROPERTY_DEFINITION('material property','density of part',#460);
#292=AXIS2_PLACEMENT_3D('',#373,#307,#308);
#293=AXIS2_PLACEMENT_3D('',#374,#309,#310);
#294=AXIS2_PLACEMENT_3D('',#383,#315,#316);
#295=AXIS2_PLACEMENT_3D('',#389,#320,#321);
#296=AXIS2_PLACEMENT_3D('',#395,#325,#326);
#297=AXIS2_PLACEMENT_3D('',#405,#332,#333);
#298=AXIS2_PLACEMENT_3D('',#411,#337,#338);
#299=AXIS2_PLACEMENT_3D('',#417,#342,#343);
#300=AXIS2_PLACEMENT_3D('',#420,#346,#347);
#301=AXIS2_PLACEMENT_3D('',#422,#349,#350);
#302=AXIS2_PLACEMENT_3D('',#431,#355,#356);
#303=AXIS2_PLACEMENT_3D('',#437,#360,#361);
#304=AXIS2_PLACEMENT_3D('',#443,#365,#366);
#305=AXIS2_PLACEMENT_3D('',#446,#369,#370);
#306=AXIS2_PLACEMENT_3D('',#447,#371,#372);
#307=DIRECTION('axis',(0.,0.,1.));
#308=DIRECTION('refdir',(1.,0.,0.));
#309=DIRECTION('center_axis',(0.,1.,0.));
#310=DIRECTION('ref_axis',(0.,0.,-1.));
#311=DIRECTION('',(0.,0.,-1.));
#312=DIRECTION('',(-1.,0.,0.));
#313=DIRECTION('',(0.,0.,1.));
#314=DIRECTION('',(-1.,0.,0.));
#315=DIRECTION('center_axis',(0.,0.,1.));
#316=DIRECTION('ref_axis',(0.,1.,0.));
#317=DIRECTION('',(0.,1.,0.));
#318=DIRECTION('',(-1.,0.,0.));
#319=DIRECTION('',(0.,-1.,0.));
#320=DIRECTION('center_axis',(0.,-1.,0.));
#321=DIRECTION('ref_axis',(0.,0.,1.));
#322=DIRECTION('',(0.,0.,1.));
#323=DIRECTION('',(-1.,0.,0.));
#324=DIRECTION('',(0.,0.,-1.));
#325=DIRECTION('center_axis',(1.,0.,0.));
#326=DIRECTION('ref_axis',(0.,-1.,0.));
#327=DIRECTION('',(0.,-1.,0.));
#328=DIRECTION('',(0.,0.,-1.));
#329=DIRECTION('',(0.,-1.,0.));
#330=DIRECTION('',(0.,0.,-1.));
#331=DIRECTION('',(0.,-1.,0.));
#332=DIRECTION('center_axis',(0.,1.,0.));
#333=DIRECTION('ref_axis',(1.,0.,0.));
#334=DIRECTION('',(1.,0.,0.));
#335=DIRECTION('',(0.,0.,-1.));
#336=DIRECTION('',(1.,0.,0.));
#337=DIRECTION('center_axis',(-1.,0.,0.));
#338=DIRECTION('ref_axis',(0.,1.,0.));
#339=DIRECTION('',(0.,1.,0.));
#340=DIRECTION('',(0.,0.,-1.));
#341=DIRECTION('',(0.,1.,0.));
#342=DIRECTION('center_axis',(0.,-1.,0.));
#343=DIRECTION('ref_axis',(-1.,0.,0.));
#344=DIRECTION('',(-1.,0.,0.));
#345=DIRECTION('',(-1.,0.,0.));
#346=DIRECTION('center_axis',(0.,0.,-1.));
#347=DIRECTION('ref_axis',(-1.,0.,0.));
#348=DIRECTION('',(0.,-1.,0.));
#349=DIRECTION('center_axis',(-1.,0.,0.));
#350=DIRECTION('ref_axis',(0.,-1.,0.));
#351=DIRECTION('',(0.,1.,0.));
#352=DIRECTION('',(0.,0.,1.));
#353=DIRECTION('',(0.,-1.,0.));
#354=DIRECTION('',(0.,0.,1.));
#355=DIRECTION('center_axis',(0.,1.,0.));
#356=DIRECTION('ref_axis',(-1.,0.,0.));
#357=DIRECTION('',(1.,0.,0.));
#358=DIRECTION('',(-1.,0.,0.));
#359=DIRECTION('',(0.,0.,1.));
#360=DIRECTION('center_axis',(1.,0.,0.));
#361=DIRECTION('ref_axis',(0.,1.,0.));
#362=DIRECTION('',(0.,-1.,0.));
#363=DIRECTION('',(0.,1.,0.));
#364=DIRECTION('',(0.,0.,1.));
#365=DIRECTION('center_axis',(0.,-1.,0.));
#366=DIRECTION('ref_axis',(1.,0.,0.));
#367=DIRECTION('',(-1.,0.,0.));
#368=DIRECTION('',(1.,0.,0.));
#369=DIRECTION('center_axis',(0.,0.,1.));
#370=DIRECTION('ref_axis',(1.,0.,0.));
#371=DIRECTION('center_axis',(0.,0.,1.));
#372=DIRECTION('ref_axis',(1.,0.,0.));
#373=CARTESIAN_POINT('',(0.,0.,0.));
#374=CARTESIAN_POINT('Origin',(26.412573967702,-9.09618237836585,9.));
#375=CARTESIAN_POINT('',(26.412573967702,-9.09618237836585,9.));
#376=CARTESIAN_POINT('',(26.412573967702,-9.09618237836585,2.));
#377=CARTESIAN_POINT('',(26.412573967702,-9.09618237836584,4.5));
#378=CARTESIAN_POINT('',(23.912573967702,-9.09618237836585,9.));
#379=CARTESIAN_POINT('',(26.412573967702,-9.09618237836585,9.));
#380=CARTESIAN_POINT('',(23.912573967702,-9.09618237836585,2.));
#381=CARTESIAN_POINT('',(23.912573967702,-9.09618237836584,9.55));
#382=CARTESIAN_POINT('',(26.412573967702,-9.09618237836585,2.));
#383=CARTESIAN_POINT('Origin',(26.412573967702,-22.0961823783658,9.));
#384=CARTESIAN_POINT('',(26.412573967702,-22.0961823783658,9.));
#385=CARTESIAN_POINT('',(26.412573967702,-28.6961823783659,9.));
#386=CARTESIAN_POINT('',(23.912573967702,-22.0961823783658,9.));
#387=CARTESIAN_POINT('',(26.412573967702,-22.0961823783658,9.));
#388=CARTESIAN_POINT('',(23.912573967702,20.9438176216342,9.));
#389=CARTESIAN_POINT('Origin',(26.412573967702,-22.0961823783658,2.));
#390=CARTESIAN_POINT('',(26.412573967702,-22.0961823783658,2.));
#391=CARTESIAN_POINT('',(26.412573967702,-22.0961823783658,1.));
#392=CARTESIAN_POINT('',(23.912573967702,-22.0961823783658,2.));
#393=CARTESIAN_POINT('',(26.412573967702,-22.0961823783658,2.));
#394=CARTESIAN_POINT('',(23.912573967702,-22.0961823783658,6.05));
#395=CARTESIAN_POINT('Origin',(23.912573967702,63.9838176216342,10.1));
#396=CARTESIAN_POINT('',(23.912573967702,-32.7961823783659,2.));
#397=CARTESIAN_POINT('',(23.912573967702,63.9838176216342,2.));
#398=CARTESIAN_POINT('',(23.912573967702,-32.7961823783659,10.1));
#399=CARTESIAN_POINT('',(23.912573967702,-32.7961823783659,10.1));
#400=CARTESIAN_POINT('',(23.912573967702,63.9838176216342,10.1));
#401=CARTESIAN_POINT('',(23.912573967702,39.7888176216342,10.1));
#402=CARTESIAN_POINT('',(23.912573967702,63.9838176216342,2.));
#403=CARTESIAN_POINT('',(23.912573967702,63.9838176216342,10.1));
#404=CARTESIAN_POINT('',(23.912573967702,63.9838176216342,2.));
#405=CARTESIAN_POINT('Origin',(-67.387426032298,63.9838176216342,10.1));
#406=CARTESIAN_POINT('',(-67.387426032298,63.9838176216342,10.1));
#407=CARTESIAN_POINT('',(-44.562426032298,63.9838176216342,10.1));
#408=CARTESIAN_POINT('',(-67.387426032298,63.9838176216342,2.));
#409=CARTESIAN_POINT('',(-67.387426032298,63.9838176216342,10.1));
#410=CARTESIAN_POINT('',(-67.387426032298,63.9838176216342,2.));
#411=CARTESIAN_POINT('Origin',(-67.387426032298,-32.7961823783659,10.1));
#412=CARTESIAN_POINT('',(-67.387426032298,-32.7961823783659,10.1));
#413=CARTESIAN_POINT('',(-67.387426032298,-8.60118237836585,10.1));
#414=CARTESIAN_POINT('',(-67.387426032298,-32.7961823783659,2.));
#415=CARTESIAN_POINT('',(-67.387426032298,-32.7961823783659,10.1));
#416=CARTESIAN_POINT('',(-67.387426032298,-32.7961823783659,2.));
#417=CARTESIAN_POINT('Origin',(23.912573967702,-32.7961823783659,10.1));
#418=CARTESIAN_POINT('',(1.08757396770196,-32.7961823783659,10.1));
#419=CARTESIAN_POINT('',(23.912573967702,-32.7961823783659,2.));
#420=CARTESIAN_POINT('Origin',(-21.737426032298,15.5938176216342,2.));
#421=CARTESIAN_POINT('',(26.412573967702,-22.1961823783658,2.));
#422=CARTESIAN_POINT('Origin',(-69.887426032298,66.4838176216342,0.));
#423=CARTESIAN_POINT('',(-69.887426032298,-35.2961823783659,0.));
#424=CARTESIAN_POINT('',(-69.887426032298,66.4838176216342,0.));
#425=CARTESIAN_POINT('',(-69.887426032298,-35.2961823783659,0.));
#426=CARTESIAN_POINT('',(-69.887426032298,-35.2961823783659,10.1));
#427=CARTESIAN_POINT('',(-69.887426032298,-35.2961823783659,0.));
#428=CARTESIAN_POINT('',(-69.887426032298,66.4838176216342,10.1));
#429=CARTESIAN_POINT('',(-69.887426032298,-35.2961823783659,10.1));
#430=CARTESIAN_POINT('',(-69.887426032298,66.4838176216342,0.));
#431=CARTESIAN_POINT('Origin',(26.412573967702,66.4838176216342,0.));
#432=CARTESIAN_POINT('',(26.412573967702,66.4838176216342,0.));
#433=CARTESIAN_POINT('',(-69.887426032298,66.4838176216342,0.));
#434=CARTESIAN_POINT('',(26.412573967702,66.4838176216342,10.1));
#435=CARTESIAN_POINT('',(-69.887426032298,66.4838176216342,10.1));
#436=CARTESIAN_POINT('',(26.412573967702,66.4838176216342,0.));
#437=CARTESIAN_POINT('Origin',(26.412573967702,-35.2961823783659,0.));
#438=CARTESIAN_POINT('',(26.412573967702,-35.2961823783659,0.));
#439=CARTESIAN_POINT('',(26.412573967702,66.4838176216342,0.));
#440=CARTESIAN_POINT('',(26.412573967702,-35.2961823783659,10.1));
#441=CARTESIAN_POINT('',(26.412573967702,66.4838176216342,10.1));
#442=CARTESIAN_POINT('',(26.412573967702,-35.2961823783659,0.));
#443=CARTESIAN_POINT('Origin',(-69.887426032298,-35.2961823783659,0.));
#444=CARTESIAN_POINT('',(26.412573967702,-35.2961823783659,0.));
#445=CARTESIAN_POINT('',(26.412573967702,-35.2961823783659,10.1));
#446=CARTESIAN_POINT('Origin',(-21.737426032298,15.5938176216342,10.1));
#447=CARTESIAN_POINT('Origin',(-21.737426032298,15.5938176216342,0.));
#448=UNCERTAINTY_MEASURE_WITH_UNIT(LENGTH_MEASURE(0.01),#452,
'DISTANCE_ACCURACY_VALUE',
'Maximum model space distance between geometric entities at asserted c
onnectivities');
#449=UNCERTAINTY_MEASURE_WITH_UNIT(LENGTH_MEASURE(0.01),#452,
'DISTANCE_ACCURACY_VALUE',
'Maximum model space distance between geometric entities at asserted c
onnectivities');
#450=(
GEOMETRIC_REPRESENTATION_CONTEXT(3)
GLOBAL_UNCERTAINTY_ASSIGNED_CONTEXT((#448))
GLOBAL_UNIT_ASSIGNED_CONTEXT((#452,#454,#455))
REPRESENTATION_CONTEXT('','3D')
);
#451=(
GEOMETRIC_REPRESENTATION_CONTEXT(3)
GLOBAL_UNCERTAINTY_ASSIGNED_CONTEXT((#449))
GLOBAL_UNIT_ASSIGNED_CONTEXT((#452,#454,#455))
REPRESENTATION_CONTEXT('','3D')
);
#452=(
LENGTH_UNIT()
NAMED_UNIT(*)
SI_UNIT(.MILLI.,.METRE.)
);
#453=(
LENGTH_UNIT()
NAMED_UNIT(*)
SI_UNIT($,.METRE.)
);
#454=(
NAMED_UNIT(*)
PLANE_ANGLE_UNIT()
SI_UNIT($,.RADIAN.)
);
#455=(
NAMED_UNIT(*)
SI_UNIT($,.STERADIAN.)
SOLID_ANGLE_UNIT()
);
#456=SHAPE_DEFINITION_REPRESENTATION(#457,#458);
#457=PRODUCT_DEFINITION_SHAPE('',$,#460);
#458=SHAPE_REPRESENTATION('',(#292),#450);
#459=PRODUCT_DEFINITION_CONTEXT('part definition',#464,'design');
#460=PRODUCT_DEFINITION('2026-08-30-22-29-27-866','Hackpad Top',#461,#459);
#461=PRODUCT_DEFINITION_FORMATION('',$,#466);
#462=PRODUCT_RELATED_PRODUCT_CATEGORY('Hackpad Top','Hackpad Top',(#466));
#463=APPLICATION_PROTOCOL_DEFINITION('international standard',
'automotive_design',2009,#464);
#464=APPLICATION_CONTEXT(
'Core Data for Automotive Mechanical Design Process');
#465=PRODUCT_CONTEXT('part definition',#464,'mechanical');
#466=PRODUCT('2026-08-30-22-29-27-866','Hackpad Top',$,(#465));
#467=PRESENTATION_STYLE_ASSIGNMENT((#468));
#468=SURFACE_STYLE_USAGE(.BOTH.,#469);
#469=SURFACE_SIDE_STYLE('',(#470));
#470=SURFACE_STYLE_FILL_AREA(#471);
#471=FILL_AREA_STYLE('Steel - Satin',(#472));
#472=FILL_AREA_STYLE_COLOUR('Steel - Satin',#473);
#473=COLOUR_RGB('Steel - Satin',0.627450980392157,0.627450980392157,0.627450980392157);
ENDSEC;
END-ISO-10303-21;
